<svg xmlns="http://www.w3.org/2000/svg" width="40" height="40" fill="none"><mask id="a" width="26" height="26" x="7" y="7" maskUnits="userSpaceOnUse" style="mask-type:alpha"><path fill="#000" d="M20 33c7.18 0 13-5.82 13-13S27.18 7 20 7 7 12.82 7 20s5.82 13 13 13Z"/></mask><g mask="url(#a)"><path fill="#000" d="M20 33c7.18 0 13-5.82 13-13S27.18 7 20 7 7 12.82 7 20s5.82 13 13 13Z"/><path fill="url(#b)" d="M28.596 29.753 16.987 14.8H14.8v10.396h1.75v-8.174l10.672 13.789c.482-.322.94-.676 1.374-1.058Z"/><path fill="url(#c)" d="M25.344 14.8h-1.733v10.4h1.733V14.8Z"/></g><defs><linearGradient id="b" x1="22.744" x2="27.872" y1="23.828" y2="30.183" gradientUnits="userSpaceOnUse"><stop stop-color="#fff"/><stop offset="1" stop-color="#fff" stop-opacity="0"/></linearGradient><linearGradient id="c" x1="24.478" x2="24.449" y1="14.8" y2="22.438" gradientUnits="userSpaceOnUse"><stop stop-color="#fff"/><stop offset="1" stop-color="#fff" stop-opacity="0"/></linearGradient></defs></svg>