<svg xmlns="http://www.w3.org/2000/svg" width="40" height="40" fill="none" viewBox="0 0 40 40"><linearGradient id="a" x1="9.301" x2="33.301" y1="5.578" y2="17.241" gradientUnits="userSpaceOnUse"><stop offset=".1" stop-color="#76B3E1"/><stop offset=".3" stop-color="#DCF2FD"/><stop offset="1" stop-color="#76B3E1"/></linearGradient><linearGradient id="b" x1="22.468" x2="18.265" y1="11.284" y2="25.279" gradientUnits="userSpaceOnUse"><stop offset="0" stop-color="#76B3E1"/><stop offset=".5" stop-color="#4377BB"/><stop offset="1" stop-color="#1F3B77"/></linearGradient><linearGradient id="c" x1="7.547" x2="31.817" y1="17.376" y2="33.877" gradientUnits="userSpaceOnUse"><stop offset="0" stop-color="#315AA9"/><stop offset=".5" stop-color="#518AC8"/><stop offset="1" stop-color="#315AA9"/></linearGradient><linearGradient id="d" x1="18.496" x2="8.704" y1="19.361" y2="55.275" gradientUnits="userSpaceOnUse"><stop offset="0" stop-color="#4377BB"/><stop offset=".5" stop-color="#1A336B"/><stop offset="1" stop-color="#1A336B"/></linearGradient><path fill="#76B3E1" d="M35.4217 11.747C35.4217 11.747 25.2048 4.22891 17.3012 5.96385L16.7229 6.15662C15.5663 6.54217 14.6024 7.12048 14.0241 7.89156L13.6386 8.46988L10.747 13.4819L15.7591 14.4458C17.8795 15.7952 20.5783 16.3735 23.0844 15.7952L31.9518 17.5301L35.4217 11.747Z"/><path fill="url(#a)" d="M35.4217 11.747C35.4217 11.747 25.2048 4.22891 17.3012 5.96385L16.7229 6.15662C15.5663 6.54217 14.6024 7.12048 14.0241 7.89156L13.6386 8.46988L10.747 13.4819L15.7591 14.4458C17.8795 15.7952 20.5783 16.3735 23.0844 15.7952L31.9518 17.5301L35.4217 11.747Z" opacity=".3"/><path fill="#518AC8" d="M14.0241 11.747L13.253 11.9398C9.97589 12.9036 9.01203 15.988 10.747 18.6867C12.6747 21.1928 16.7229 22.5422 20 21.5783L31.9518 17.5301C31.9518 17.5301 21.7349 10.012 14.0241 11.747Z"/><path fill="url(#b)" d="M14.0241 11.747L13.253 11.9398C9.97589 12.9036 9.01203 15.988 10.747 18.6867C12.6747 21.1928 16.7229 22.5422 20 21.5783L31.9518 17.5301C31.9518 17.5301 21.7349 10.012 14.0241 11.747Z" opacity=".3"/><path fill="url(#c)" d="M29.8313 20.4217C28.752 19.0734 27.2949 18.0779 25.6464 17.5627C23.9979 17.0476 22.2332 17.0362 20.5783 17.5301L8.62648 21.3855L4.77106 28.1325L26.3614 31.7952L30.2168 24.8554C30.9879 23.506 30.7952 21.9639 29.8313 20.4217Z"/><path fill="url(#d)" d="M25.9759 27.1687C24.8966 25.8203 23.4394 24.8249 21.791 24.3097C20.1425 23.7946 18.3778 23.7832 16.7229 24.2771L4.77106 28.1325C4.77106 28.1325 14.9879 35.8434 22.8915 33.9157L23.4698 33.7229C26.747 32.759 27.9036 29.6747 25.9759 27.1687Z"/></svg>